<?xml version="1.0" encoding="UTF-8"?>
<svg xmlns="http://www.w3.org/2000/svg" id="Ebene_2" viewBox="0 0 400 98.82">
  <defs>
    <style>.cls-1{fill:#10b3c9;}</style>
  </defs>
  <g id="Ebene_1-2">
    <g id="SvgjsG4399">
      <path class="cls-1" d="m4.12,64.66c-.7-1.27.7-1.27,1.55-.98l-1.55.98Zm92.92-19.68l.42.56c.28.28,1.12,2.25-.42,1.55v-2.11Zm-60.45,41.75c0-.98.98-1.55,1.69-2.11.7,1.41-1.12,1.27-1.69,2.11m26.85-53.7c0,.7.14,2.11-.7,1.69-.7-.42,0-1.55.7-1.69m33.74,17.57c-.84-.56-.98-3.23,0-2.53,1.12.56.42,1.83,0,2.53m-60.59,36.13c-.14.7,0,1.41.7,1.69l2.95.28c.56.28,1.12.98,1.69,1.41,0-.56-.28-1.55.42-1.27.56.28.84.14.42-.56l1.27.28c2.81,2.53,8.29,1.97,12.79,1.12,6.33-1.12,12.37-3.09,17.01-6.04,6.33-4.08,10.82-10.12,15.6-15.88l5.34-5.34c1.41-1.83,1.27-4.08,1.27-6.75,0-.84,1.69-2.95,2.25-3.8.28,2.11.14,4.78.14,7.03l1.12.98c.28,4.22-1.12,6.75-2.11,9.7-3.09,8.72-8.15,15.46-16.59,18.84-1.55,1.41-2.67,3.37-3.94,5.34-4.22,0-8.15.84-11.39,3.09-3.37-.7-8.58.7-12.09,1.97-6.89-1.27-14.2-1.83-18.84-3.94-1.55-.7-3.51,1.12-4.5,1.83-1.97,1.41-4.92.98-5.62-1.12-.56-1.27.84-2.81-.28-4.08-.42-.56-1.12-1.12-1.97-.84,0,.28.28,1.41-.42,1.12-1.55-.56,1.27-2.67-1.27-3.37-.56.7.42,1.69.14,2.67-2.11-.14-4.08-1.41-4.5-3.37-.14-.98.28-1.83.98-2.67-2.95-3.51-4.92-8.58-5.9-13.5-.14-.56-.28-1.12-.7-1.69-2.25-2.25-3.51-5.2-5.34-8.29-.28,1.83-1.55.7-1.69,0-.14-.84-.42-1.97.14-2.53-1.41-.42-2.81-1.97-3.37-3.8-.84-2.67.14-5.2,1.12-6.61,1.12-6.19,3.94-11.25,6.61-15.74-.28-4.92,1.97-7.73,4.08-10.4,3.09-3.94,7.73-6.04,9.84-10.96,2.81-1.27,5.9-2.39,8.15-4.5.56-.56,1.55.56.84,1.27-.28.28.42,1.12.84.28,1.83-3.37,5.76-6.47,10.96-4.92,1.83.56-.14,2.25,1.41,2.67-2.25.84-4.5,1.83-6.47,3.23,1.41-.28,2.95-.84,4.5-.42,0,.14.28.84.84.28.84-.7,1.41,1.55,1.97.42l1.12-.7c2.67-.14,5.48.56,7.87-.56-.42-.84-.7-3.09-.98-2.53-.98-.42-2.11.14-2.67-.7-.42-.56.14-1.12.56-1.55,0,.84.7.84.7,0s1.12-.98,1.55-1.12c2.81-1.12,7.31-.56,9.84-1.27l.84,1.12c1.69-.7.84-2.11,2.25-2.53-.28.98-.7,2.95.56,2.39.84-.42.42-1.69,1.41-2.39.7.42.42,2.11.98,2.67.42-.7.42-1.69,1.12-1.97s.98.98.7,1.55c-.7,1.12.84.98,1.41.84,1.83,1.69,3.51,3.8,6.19,4.36,1.12-1.41,2.11-2.81,2.95-4.78.7,2.25-1.12,4.5-2.53,6.04,4.78,4.64,9.84,9.42,12.79,14.48l2.53,11.53c.7,0,.84-1.12,1.41-1.41,1.12,3.09.84,6.19-.14,9.98l-1.97-8.15-1.69-1.12c-.98,1.55-.7,3.8-1.69,5.76-2.53-.98-4.08-3.09-5.76-4.78-1.41-1.41-2.67-2.95-4.22-3.94-.28-.28-2.11.42-2.95.56.42-2.25-.56-4.22-1.83-4.22-.98-1.97-2.81-3.09-3.37-4.92-.98,0-1.55,1.55-2.11,2.11-1.41,1.55-2.39,3.65-3.65,5.62-.14.28-.28,1.41-1.69.7,1.97-2.81,3.94-5.76,4.5-9.98,0-.42-.98-1.27-1.83-.56-1.12,1.12-2.11,2.39-2.67,3.8-1.12,2.81-3.09,4.92-3.8,8.29-.42,0-1.27-.7-.84-1.41,1.12-1.83,2.39-4.22,2.11-7.03-1.12,0-2.39-.28-2.39-1.12-.14-1.27-.84-2.39-1.41-3.51-.56.42-.56,1.69-1.41,1.55-.98-.28.56-2.53-.56-3.51-.7-.56-1.12-1.41-1.27-1.97-.42,1.12-.56-1.41-1.41.42-.56,1.27-.28-1.12.7-1.69-2.11-.7-5.06-1.97-7.17-1.97-1.12,0-4.5-.84-5.76-.7-.7.14.84.84.7,1.83-1.69-.7-3.37-.98-5.48.28-3.94,2.67-9.14,4.64-12.09,8.58-.7.98-2.67,0-3.51.7-3.94,3.65-7.03,7.87-10.12,13.07-.28,3.37-.84,7.45-.98,11.53,0,1.69.56,3.8.42,4.64-.42,4.22-.14,8.01.42,10.96,1.41,1.41,2.25,3.51,2.53,5.48.7-.56,1.55,0,1.69.7.56,3.37,2.39,5.9,4.92,6.89,4.78,4.64,10.4,7.31,15.6,10.82l1.12-.28Z"></path>
    </g>
    <g id="SvgjsG4400">
      <path class="cls-1" d="m138.97,47.23c-1.94.47-3.72,1.59-5.34,3.35-1.62,1.76-2.44,4.33-2.44,7.71v16.44h-10.08v-37.2h10.08v4.94c1.67-2.21,3.71-3.71,6.12-4.5,2.41-.79,4.61-1.16,6.6-1.12v9.88c-1.35-.14-3,.03-4.94.51Zm20.43-15.22c-1.08,1.06-2.39,1.59-3.92,1.59s-2.92-.53-4.02-1.59-1.66-2.36-1.66-3.89c0-1.49.55-2.76,1.66-3.82s2.45-1.59,4.02-1.59c1.53,0,2.84.53,3.92,1.59,1.08,1.06,1.62,2.33,1.62,3.82s-.54,2.83-1.62,3.89Zm-9,5.58h10.15v37.13h-10.15v-37.13Zm48.36,33.41c-.86,1.17-2.33,2.22-4.43,3.15-2.1.92-4.39,1.39-6.87,1.39-3.83,0-7.16-.86-9.98-2.57s-4.97-4.05-6.46-7c-1.49-2.95-2.23-6.23-2.23-9.84s.74-6.89,2.23-9.84c1.49-2.95,3.64-5.29,6.46-7s6.14-2.57,9.98-2.57c2.57,0,4.84.44,6.8,1.32,1.96.88,3.46,2,4.5,3.35v-17.79h10.01v51.14h-10.01v-3.72Zm-2.37-22.49c-1.85-1.96-4.33-2.94-7.44-2.94s-5.65.98-7.47,2.94-2.74,4.5-2.74,7.61c0,3.02.94,5.52,2.81,7.51s4.34,2.98,7.41,2.98,5.65-.94,7.47-2.81,2.74-4.43,2.74-7.68-.92-5.65-2.77-7.61Zm31.89,25.33c-3.09-1.22-5.74-3.28-7.95-6.19-2.21-2.91-3.31-6.71-3.31-11.4s1.12-8.48,3.35-11.36c2.23-2.89,4.9-4.94,8.02-6.16s6.07-1.83,8.86-1.83c3.25,0,6.34.72,9.27,2.16,2.93,1.44,5.33,3.56,7.2,6.36,1.87,2.8,2.85,6.11,2.94,9.94,0,1.17-.02,2.19-.07,3.04-.05.86-.09,1.4-.14,1.62h-29.36c.54,2.62,1.89,4.4,4.06,5.34,2.16.95,4.19,1.42,6.09,1.42,2.44,0,4.37-.44,5.82-1.32s2.68-1.88,3.72-3.01l7.85,4.53c-4.24,5.77-10.03,8.66-17.38,8.66-2.89,0-5.87-.61-8.96-1.83h0Zm2.06-26.01c-1.76,1.38-2.75,3.06-2.98,5.04h18.6c-.14-1.17-.59-2.3-1.35-3.38-.77-1.08-1.79-1.97-3.08-2.67s-2.74-1.05-4.36-1.05c-2.8,0-5.07.69-6.83,2.06h0Zm62.7,23.17c-.86,1.17-2.33,2.22-4.43,3.15-2.1.92-4.39,1.39-6.87,1.39-3.83,0-7.16-.86-9.98-2.57s-4.97-4.05-6.46-7c-1.49-2.95-2.23-6.23-2.23-9.84,0-3.61.74-6.89,2.23-9.84,1.49-2.95,3.64-5.29,6.46-7s6.14-2.57,9.98-2.57c2.57,0,4.84.44,6.8,1.32s3.46,2,4.5,3.35v-3.86h10.01v37.2h-10.01v-3.72Zm-2.37-22.49c-1.85-1.96-4.33-2.94-7.44-2.94s-5.65.98-7.47,2.94c-1.83,1.96-2.74,4.5-2.74,7.61s.94,5.52,2.81,7.51c1.87,1.98,4.34,2.98,7.41,2.98s5.65-.94,7.47-2.81c1.83-1.87,2.74-4.43,2.74-7.68s-.92-5.65-2.77-7.61Zm22.39,26.21V23.59h10.01v17.79c1.04-1.35,2.54-2.47,4.5-3.35,1.96-.88,4.23-1.32,6.8-1.32,3.83,0,7.16.86,9.98,2.57,2.82,1.71,4.97,4.05,6.46,7,1.49,2.95,2.23,6.23,2.23,9.84s-.74,6.89-2.23,9.84c-1.49,2.95-3.64,5.29-6.46,7-2.82,1.71-6.14,2.57-9.98,2.57-2.48,0-4.77-.46-6.87-1.39-2.1-.92-3.57-1.97-4.43-3.15v3.72h-10.01Zm12.34-10.92c1.83,1.87,4.32,2.81,7.47,2.81s5.54-.99,7.41-2.98c1.87-1.98,2.81-4.49,2.81-7.51s-.91-5.65-2.74-7.61c-1.83-1.96-4.32-2.94-7.47-2.94s-5.59.98-7.44,2.94c-1.85,1.96-2.77,4.5-2.77,7.61s.91,5.81,2.74,7.68h0Zm44.17,9.2c-3.09-1.74-5.54-4.09-7.34-7.07-1.8-2.98-2.71-6.22-2.71-9.74,0-3.47.9-6.7,2.71-9.67,1.8-2.98,4.25-5.33,7.34-7.07s6.46-2.6,10.11-2.6,7.03.87,10.15,2.6c3.11,1.74,5.58,4.09,7.41,7.07,1.83,2.98,2.74,6.2,2.74,9.67s-.91,6.76-2.74,9.74c-1.83,2.98-4.3,5.33-7.41,7.07-3.11,1.74-6.49,2.6-10.15,2.6s-7.02-.87-10.11-2.6Zm4.97-25.91c-1.58.92-2.82,2.19-3.72,3.79-.9,1.6-1.35,3.37-1.35,5.31s.44,3.84,1.32,5.45,2.1,2.86,3.65,3.79,3.3,1.39,5.24,1.39,3.62-.46,5.17-1.39,2.78-2.2,3.69-3.82c.9-1.62,1.35-3.43,1.35-5.41s-.45-3.71-1.35-5.31-2.13-2.86-3.69-3.79c-1.56-.92-3.28-1.39-5.17-1.39s-3.56.46-5.14,1.39h0Z"></path>
    </g>
  </g>
</svg>
